<?xml version="1.0" encoding="UTF-8" standalone="no"?>
<!-- Created with Inkscape (http://www.inkscape.org/) -->

<svg
   xmlns:dc="http://purl.org/dc/elements/1.1/"
   xmlns:cc="http://creativecommons.org/ns#"
   xmlns:rdf="http://www.w3.org/1999/02/22-rdf-syntax-ns#"
   xmlns:svg="http://www.w3.org/2000/svg"
   xmlns="http://www.w3.org/2000/svg"
   xmlns:sodipodi="http://sodipodi.sourceforge.net/DTD/sodipodi-0.dtd"
   xmlns:inkscape="http://www.inkscape.org/namespaces/inkscape"
   width="384.75525mm"
   height="114.27629mm"
   viewBox="0 0 1363.306 404.91599"
   id="svg4308"
   version="1.1"
   inkscape:version="0.91 r13725"
   sodipodi:docname="people-inmotion.svg">
  <defs
     id="defs4310" />
  <sodipodi:namedview
     id="base"
     pagecolor="#ffffff"
     bordercolor="#666666"
     borderopacity="1.0"
     inkscape:pageopacity="0.0"
     inkscape:pageshadow="2"
     inkscape:zoom="0.35"
     inkscape:cx="740.93874"
     inkscape:cy="185.3151"
     inkscape:document-units="px"
     inkscape:current-layer="layer1"
     showgrid="false"
     fit-margin-top="0"
     fit-margin-left="0"
     fit-margin-right="0"
     fit-margin-bottom="0"
     inkscape:window-width="1366"
     inkscape:window-height="705"
     inkscape:window-x="-8"
     inkscape:window-y="304"
     inkscape:window-maximized="1" />
  <metadata
     id="metadata4313">
    <rdf:RDF>
      <cc:Work
         rdf:about="">
        <dc:format>image/svg+xml</dc:format>
        <dc:type
           rdf:resource="http://purl.org/dc/dcmitype/StillImage" />
        <dc:title></dc:title>
      </cc:Work>
    </rdf:RDF>
  </metadata>
  <g
     inkscape:label="Capa 1"
     inkscape:groupmode="layer"
     id="layer1"
     transform="translate(893.0816,-312.7613)">
    <g
       transform="translate(1126.2224,3635.7253)"
       id="g5">
      <path
         style="fill:#ffffff"
         inkscape:connector-curvature="0"
         d="m -1479.159,-3189 c 0,-21.65 -15.977,-36 -40.702,-36 l -25.043,0 c -3.866,0 -7.096,3.381 -7.096,7.247 l 0,93.247 c 0,3.866 3.23,6.506 7.096,6.506 l 5.062,0 c 3.866,0 6.842,-2.64 6.842,-6.506 l 0,-28.494 13.139,0 c 24.726,0 40.702,-14.349 40.702,-36 z m -40.702,17 -13.139,0 0,-34 13.139,0 c 9.812,0 21.507,3.122 21.507,16.934 0,13.922 -11.695,17.066 -21.507,17.066 z"
         id="path7" />
      <path
         style="fill:#ffffff"
         inkscape:connector-curvature="0"
         d="m -1381.454,-3136 -48.546,0 0,-29 37.49,0 c 3.866,0 6.51,-3.595 6.51,-7.461 l 0,-4.796 c 0,-3.866 -2.644,-6.743 -6.51,-6.743 l -37.49,0 0,-22 47.747,0 c 3.866,0 7.253,-2.958 7.253,-6.824 l 0,-4.929 c 0,-3.866 -3.387,-7.247 -7.253,-7.247 l -59.411,0 c -3.866,0 -7.335,3.381 -7.335,7.247 l 0,93.247 c 0,3.866 3.469,6.506 7.335,6.506 l 60.211,0 c 3.866,0 7.454,-2.64 7.454,-6.506 l 0,-4.929 c -10e-4,-3.866 -3.588,-6.565 -7.455,-6.565 z"
         id="path9" />
      <path
         style="fill:#ffffff"
         inkscape:connector-curvature="0"
         d="m -1258.34,-3131.349 c 10.512,-10.312 16.301,-24.439 16.301,-39.78 0,-15.341 -5.789,-29.469 -16.301,-39.781 -10.325,-10.129 -24.242,-15.707 -39.187,-15.707 -14.942,0 -28.838,5.581 -39.13,15.716 -10.463,10.304 -16.226,24.429 -16.226,39.772 0,15.343 5.762,29.468 16.226,39.771 10.292,10.135 24.188,15.716 39.13,15.716 14.945,0 28.862,-5.578 39.187,-15.707 z m -39.187,-76.339 c 21.03,0 36.293,15.376 36.293,36.56 0,21.184 -15.263,36.559 -36.293,36.559 -20.953,0 -36.16,-15.375 -36.16,-36.559 0,-21.526 14.87,-36.56 36.16,-36.56 z"
         id="path11" />
      <path
         style="fill:#ffffff"
         inkscape:connector-curvature="0"
         d="m -1138.13,-3189 c 0,-21.65 -15.977,-36 -40.702,-36 l -25.043,0 c -3.866,0 -7.125,3.381 -7.125,7.247 l 0,93.247 c 0,3.866 3.258,6.506 7.125,6.506 l 5.062,0 c 3.866,0 6.814,-2.64 6.814,-6.506 l 0,-28.494 13.167,0 c 24.725,0 40.702,-14.349 40.702,-36 z m -40.703,17 -13.167,0 0,-34 13.167,0 c 9.812,0 21.507,3.122 21.507,16.934 0,13.922 -11.695,17.066 -21.507,17.066 z"
         id="path13" />
      <path
         style="fill:#ffffff"
         inkscape:connector-curvature="0"
         d="m -1100.636,-3118 58.079,0 c 3.866,0 6.557,-2.64 6.557,-6.506 l 0,-4.929 c 0,-3.866 -2.691,-6.565 -6.557,-6.565 l -46.443,0 0,-81.753 c 0,-3.866 -2.708,-7.247 -6.575,-7.247 l -5.062,0 c -3.866,0 -7.364,3.381 -7.364,7.247 l 0,93.247 c 10e-4,3.866 3.499,6.506 7.365,6.506 z"
         id="path15" />
      <path
         style="fill:#ffffff"
         inkscape:connector-curvature="0"
         d="m -933,-3124.506 0,-4.929 c 0,-3.866 -2.716,-6.565 -6.583,-6.565 l -48.417,0 0,-29 37.361,0 c 3.866,0 6.639,-3.595 6.639,-7.461 l 0,-4.796 c 0,-3.866 -2.773,-6.743 -6.639,-6.743 l -37.361,0 0,-22 47.618,0 c 3.866,0 7.382,-2.958 7.382,-6.824 l 0,-4.929 c 0,-3.866 -3.516,-7.247 -7.382,-7.247 l -59.411,0 c -3.866,0 -7.207,3.381 -7.207,7.247 l 0,93.247 c 0,3.866 3.34,6.506 7.207,6.506 l 60.211,0 c 3.866,0 6.582,-2.64 6.582,-6.506 z"
         id="path17" />
      <path
         style="fill:#ffffff"
         inkscape:connector-curvature="0"
         d="m -1533,-3084 c 0,-3.866 -3.134,-7 -7,-7 l -5,0 c -3.866,0 -7,3.134 -7,7 l 0,93 c 0,3.866 3.134,7 7,7 l 5,0 c 3.866,0 7,-3.134 7,-7 l 0,-93 z"
         id="path19" />
      <path
         style="fill:#ffffff"
         inkscape:connector-curvature="0"
         d="m -1413.558,-3091 -5.062,0 c -3.866,0 -7.379,3.454 -7.379,7.32 l 0,62.742 c 0,0.216 0,0.432 0,0.646 l -50.068,-67.727 c -1.321,-1.775 -3.214,-2.982 -5.427,-2.982 l -4.796,0 c -3.866,0 -6.709,3.454 -6.709,7.32 l 0,93.247 c 0,3.866 2.843,7.433 6.709,7.433 l 5.062,0 c 3.866,0 7.229,-3.566 7.229,-7.433 l 0,-63.142 c 0,-0.139 0,-0.277 0,-0.415 l 50.139,67.944 c 1.32,1.78 3.291,3.045 5.507,3.045 l 4.796,0 c 3.866,0 6.558,-3.566 6.558,-7.433 l 0,-93.247 c -10e-4,-3.864 -2.693,-7.318 -6.559,-7.318 z"
         id="path21" />
      <path
         style="fill:#ffffff"
         inkscape:connector-curvature="0"
         d="m -1217.468,-3091 -4.796,0 c -2.501,0 -4.813,1.495 -6.063,3.662 l -25.953,45.066 c -1.765,3.014 -3.247,5.644 -4.49,7.858 -1.234,-2.215 -2.705,-4.774 -4.453,-7.759 l -25.976,-45.176 c -1.25,-2.167 -3.562,-3.652 -6.063,-3.652 l -4.796,0 c -3.866,0 -6.942,3.454 -6.942,7.32 l 0,93.247 c 0,3.866 3.076,7.433 6.942,7.433 l 5.062,0 c 3.866,0 6.997,-3.566 6.997,-7.433 l 0,-51.552 c 0,-1.673 -0.011,-3.629 -0.033,-5.74 l 21.875,38.053 c 1.25,2.165 3.562,3.671 6.063,3.671 l 2.664,0 c 2.5,0 4.812,-1.506 6.062,-3.671 l 21.638,-37.966 c -0.021,2.11 -0.269,3.98 -0.269,5.653 l 0,51.552 c 0,3.866 3.603,7.433 7.469,7.433 l 5.062,0 c 3.866,0 7.468,-3.566 7.468,-7.433 l 0,-93.247 c 0,-3.865 -3.602,-7.319 -7.468,-7.319 z"
         id="path23" />
      <path
         style="fill:#ffffff"
         inkscape:connector-curvature="0"
         d="m -1123.417,-3092.544 c -14.942,0 -28.838,5.581 -39.13,15.716 -10.463,10.304 -16.226,24.429 -16.226,39.772 0,15.343 5.762,29.468 16.226,39.771 10.292,10.135 24.188,15.716 39.13,15.716 14.945,0 28.862,-5.578 39.187,-15.707 10.512,-10.312 16.301,-24.439 16.301,-39.78 0,-15.341 -5.789,-29.469 -16.301,-39.781 -10.325,-10.129 -24.242,-15.707 -39.187,-15.707 z m 0,92.047 c -20.953,0 -36.16,-15.375 -36.16,-36.559 0,-21.525 14.87,-36.56 36.16,-36.56 21.03,0 36.293,15.376 36.293,36.56 0,21.184 -15.264,36.559 -36.293,36.559 z"
         id="path25" />
      <path
         style="fill:#ffffff"
         inkscape:connector-curvature="0"
         d="m -972.752,-3091 -70.468,0 c -3.866,0 -6.78,3.454 -6.78,7.32 l 0,4.929 c 0,3.866 2.914,6.751 6.78,6.751 l 25.22,0 0,81.567 c 0,3.866 3.55,7.433 7.417,7.433 l 5.195,0 c 3.866,0 7.388,-3.566 7.388,-7.433 l 0,-81.567 25.248,0 c 3.866,0 6.752,-2.885 6.752,-6.751 l 0,-4.929 c 0,-3.866 -2.886,-7.32 -6.752,-7.32 z"
         id="path27" />
      <path
         style="fill:#ffffff"
         inkscape:connector-curvature="0"
         d="m -917,-3084 c 0,-3.866 -3.134,-7 -7,-7 l -5,0 c -3.866,0 -7,3.134 -7,7 l 0,93 c 0,3.866 3.134,7 7,7 l 5,0 c 3.866,0 7,-3.134 7,-7 l 0,-93 z"
         id="path29" />
      <path
         style="fill:#ffffff"
         inkscape:connector-curvature="0"
         d="m -829.814,-3092.544 c -14.942,0 -28.838,5.581 -39.13,15.716 -10.463,10.304 -16.226,24.429 -16.226,39.772 0,15.343 5.762,29.468 16.226,39.771 10.292,10.135 24.188,15.716 39.13,15.716 14.945,0 28.862,-5.578 39.187,-15.707 10.512,-10.312 16.301,-24.439 16.301,-39.78 0,-15.341 -5.789,-29.469 -16.301,-39.781 -10.325,-10.129 -24.242,-15.707 -39.187,-15.707 z m 0,92.047 c -20.953,0 -36.16,-15.375 -36.16,-36.559 0,-21.525 14.87,-36.56 36.16,-36.56 21.03,0 36.293,15.376 36.293,36.56 0,21.184 -15.263,36.559 -36.293,36.559 z"
         id="path31" />
      <path
         style="fill:#ffffff"
         inkscape:connector-curvature="0"
         d="m -663.429,-3091 -5.062,0 c -3.866,0 -6.508,3.454 -6.508,7.32 l 0,62.742 c 0,0.216 0,0.432 0,0.646 l -50.503,-67.727 c -1.321,-1.775 -3.649,-2.982 -5.862,-2.982 l -4.796,0 c -3.866,0 -6.838,3.454 -6.838,7.32 l 0,93.247 c 0,3.866 2.972,7.433 6.838,7.433 l 5.062,0 c 3.866,0 7.1,-3.566 7.1,-7.433 l 0,-63.142 c 0,-0.139 0,-0.277 0,-0.415 l 50.203,67.944 c 1.32,1.78 3.356,3.045 5.572,3.045 l 4.796,0 c 3.866,0 7.429,-3.566 7.429,-7.433 l 0,-93.247 c -0.002,-3.864 -3.565,-7.318 -7.431,-7.318 z"
         id="path33" />
      <path
         style="fill:#ffffff"
         inkscape:connector-curvature="0"
         d="m -1614.388,-3170.794 c 0,-9.646 -3.756,-18.713 -10.576,-25.533 l -116.06,-116.06 c -6.82,-6.82 -15.888,-10.577 -25.534,-10.577 -9.646,0 -18.714,3.757 -25.534,10.577 l -24.754,24.754 -24.754,-24.754 c -6.82,-6.82 -15.888,-10.577 -25.534,-10.577 -9.646,0 -18.713,3.757 -25.534,10.577 l -116.059,116.06 c -6.821,6.82 -10.577,15.888 -10.577,25.533 0,9.646 3.756,18.714 10.576,25.534 l 24.754,24.754 -24.754,24.754 c -14.079,14.08 -14.079,36.988 0,51.068 l 116.06,116.06 c 6.82,6.82 15.888,10.576 25.533,10.576 9.646,0 18.713,-3.756 25.534,-10.576 l 24.754,-24.754 24.754,24.754 c 6.82,6.82 15.888,10.576 25.534,10.576 9.645,0 18.713,-3.756 25.534,-10.576 l 116.06,-116.06 c 14.079,-14.08 14.079,-36.988 0,-51.068 l -24.754,-24.754 24.754,-24.754 c 6.821,-6.82 10.577,-15.887 10.577,-25.534 z m -378.076,9.271 c -2.476,-2.476 -3.839,-5.769 -3.839,-9.271 0,-3.501 1.363,-6.794 3.84,-9.27 l 116.06,-116.06 c 2.476,-2.477 5.769,-3.841 9.27,-3.841 3.502,0 6.794,1.364 9.271,3.841 l 24.754,24.754 -134.6,134.6 -24.756,-24.753 z m 175.618,-93.582 134.6,134.6 -134.6,134.601 -134.6,-134.6 134.6,-134.601 z m -41.017,310.217 c -2.477,2.476 -5.769,3.84 -9.271,3.84 -3.502,0 -6.794,-1.364 -9.27,-3.84 l -116.06,-116.06 c -5.112,-5.111 -5.112,-13.43 0,-18.541 l 24.754,-24.754 134.601,134.601 -24.754,24.754 z m 216.635,-134.6 c 5.112,5.111 5.112,13.43 0,18.541 l -116.059,116.06 c -2.477,2.476 -5.769,3.84 -9.271,3.84 -3.502,0 -6.794,-1.364 -9.271,-3.84 l -24.754,-24.754 134.6,-134.601 24.755,24.754 z m 0,-82.035 -24.754,24.754 -134.6,-134.6 24.754,-24.754 c 2.476,-2.477 5.769,-3.841 9.271,-3.841 3.501,0 6.794,1.364 9.27,3.841 l 116.06,116.06 c 2.476,2.476 3.839,5.769 3.839,9.27 0,3.501 -1.363,6.794 -3.84,9.27 z"
         id="path35" />
      <path
         style="fill:#ffffff"
         inkscape:connector-curvature="0"
         d="m -1752.704,-3114.447 c 3.558,-2.054 5.75,-5.851 5.75,-9.959 0,-4.108 -2.192,-7.905 -5.75,-9.959 l -90.063,-51.998 c -3.559,-2.055 -7.934,-2.055 -11.491,0 -3.558,2.054 -5.741,5.851 -5.741,9.959 l 0,103.995 c 0,4.108 2.183,7.905 5.741,9.959 1.779,1.027 3.76,1.541 5.746,1.541 1.985,0 3.969,-0.514 5.748,-1.541 l 90.06,-51.997 z m -84.296,-42.038 55.563,32.079 -55.563,32.079 0,-64.158 z"
         id="path37" />
    </g>
  </g>
</svg>
